<svg version="1.2" xmlns="http://www.w3.org/2000/svg" viewBox="0 0 16 16" width="16" height="16"><style>.a{fill:#8da5f3}</style><path fill-rule="evenodd" class="a" d="m16 0v8h-1v8h-1v-8h-2l-0.5 0.5 0.5 0.5-0.5 0.5 0.5 0.5-0.5 0.5 0.5 0.5-0.5 0.5 0.5 0.5-0.5 0.5 0.5 0.5-0.5 0.5 0.5 0.5-0.5 0.5 0.5 0.5-0.5 0.5 0.5 0.5h-3l0.5-0.5-0.5-0.5 0.5-0.5-0.5-0.5 0.5-0.5-0.5-0.5 0.5-0.5-0.5-0.5 0.5-0.5-0.5-0.5 0.5-0.5-0.5-0.5 0.5-0.5-0.5-0.5 0.5-0.5-0.5-0.5h-1l-0.5 0.5 0.5 0.5-0.5 0.5 0.5 0.5-0.5 0.5 0.5 0.5-0.5 0.5 0.5 0.5-0.5 0.5 0.5 0.5-0.5 0.5 0.5 0.5-0.5 0.5 0.5 0.5-0.5 0.5 0.5 0.5h-1l0.5-0.5-0.5-0.5 0.5-0.5-0.5-0.5 0.5-0.5-0.5-0.5 0.5-0.5-0.5-0.5 0.5-0.5-0.5-0.5 0.5-0.5-0.5-0.5 0.5-0.5-0.5-0.5 0.5-0.5-0.5-0.5h-3l-0.5 0.5 0.5 0.5-0.5 0.5 0.5 0.5-0.5 0.5 0.5 0.5-0.5 0.5 0.5 0.5-0.5 0.5 0.5 0.5-0.5 0.5 0.5 0.5-0.5 0.5 0.5 0.5-0.5 0.5 0.5 0.5h-1l0.5-0.5-0.5-0.5 0.5-0.5-0.5-0.5 0.5-0.5-0.5-0.5 0.5-0.5-0.5-0.5 0.5-0.5-0.5-0.5 0.5-0.5-0.5-0.5 0.5-0.5-0.5-0.5 0.5-0.5-0.5-0.5h-1v8h-1v-8h-1v-8zm-15 2.5v3.5h1.5l-0.5-0.5 0.5-0.5-0.5-0.5 0.5-0.5-0.5-0.5 0.5-0.5-0.5-0.5zm6 0l-0.5 0.5 0.5 0.5-0.5 0.5 0.5 0.5-0.5 0.5 0.5 0.5-0.5 0.5h2l-0.5-0.5 0.5-0.5-0.5-0.5 0.5-0.5-0.5-0.5 0.5-0.5-0.5-0.5zm6 0l-0.5 0.5 0.5 0.5-0.5 0.5 0.5 0.5-0.5 0.5 0.5 0.5-0.5 0.5h2.5v-3.5zm-7.5-0.5h9.5v-1h-14v1h2.5l-1 1 0.5 0.5-0.5 0.5 0.5 0.5-0.5 0.5 0.5 0.5-0.5 0.5h4l-0.5-0.5 0.5-0.5-0.5-0.5 0.5-0.5-0.5-0.5 0.5-0.5z"/></svg>